<?xml version="1.0" encoding="UTF-8"?>
<svg width="43px" height="19px" viewBox="0 0 43 19" version="1.1" xmlns="http://www.w3.org/2000/svg" xmlns:xlink="http://www.w3.org/1999/xlink">
    <defs></defs>
    <g id="Website" stroke="none" stroke-width="1" fill="none" fill-rule="evenodd">
        <g id="Desktop-HD" transform="translate(-699.000000, -973.000000)" stroke="#683FAB" stroke-width="1.25" fill="#683FAB">
            <path d="M712.090926,982.925861 C712.11438,983.00645 712.154721,983.074042 712.190371,983.148132 C712.219454,983.207924 712.234464,983.275515 712.271052,983.328808 C712.302011,983.362604 727.323775,1002.88606 727.323775,1002.88606 C727.505778,1003.12133 727.736564,1003.23831 727.966413,1003.23831 C728.2169,1003.23831 728.46645,1003.10053 728.650329,1002.82757 C729.004952,1002.30504 728.985251,1001.48224 728.608112,1000.99091 L714.327492,982.441024 L728.608112,963.891142 C728.986189,963.399806 729.004952,962.577013 728.650329,962.054481 C728.295706,961.530649 727.701852,961.504653 727.323775,961.994689 L712.313269,981.492148 C712.233526,981.605233 712.217577,981.671524 712.189433,981.731317 C712.153783,981.805407 712.113442,981.872998 712.089988,981.953588 C712.067472,982.031577 712.061843,982.113467 712.050585,982.195356 C712.039328,982.277245 712.022441,982.355235 712.022441,982.438424 C712.023379,982.524213 712.040266,982.602203 712.051524,982.684092 C712.062781,982.765982 712.06841,982.847871 712.090926,982.925861 Z" id="Arrow" transform="translate(720.463450, 982.441009) scale(-1, 1) rotate(-90.000000) translate(-720.463450, -982.441009) "></path>
        </g>
    </g>
</svg>