<?xml version="1.0" encoding="UTF-8"?>
<svg width="146px" height="151px" viewBox="0 0 146 151" version="1.1" xmlns="http://www.w3.org/2000/svg" xmlns:xlink="http://www.w3.org/1999/xlink">
    <!-- Generator: Sketch 42 (36781) - http://www.bohemiancoding.com/sketch -->
    <title>loginLogo</title>
    <desc>Created with Sketch.</desc>
    <defs>
        <ellipse id="path-1" cx="61.83384" cy="47.0364049" rx="31.2246243" ry="46.8639993"></ellipse>
        <mask id="mask-2" maskContentUnits="userSpaceOnUse" maskUnits="objectBoundingBox" x="0" y="0" width="62.4492487" height="93.7279987" fill="white">
            <use xlink:href="#path-1"></use>
        </mask>
        <ellipse id="path-3" cx="84.9662096" cy="54.5326219" rx="31.2246243" ry="45.2185062"></ellipse>
        <mask id="mask-4" maskContentUnits="userSpaceOnUse" maskUnits="objectBoundingBox" x="0" y="0" width="77.7205637" height="77.7205637" fill="white">
            <use xlink:href="#path-3"></use>
        </mask>
        <ellipse id="path-5" cx="39.416161" cy="54.2615465" rx="31.2246243" ry="45.2185062"></ellipse>
        <mask id="mask-6" maskContentUnits="userSpaceOnUse" maskUnits="objectBoundingBox" x="0" y="0" width="77.7205637" height="77.7205637" fill="white">
            <use xlink:href="#path-5"></use>
        </mask>
    </defs>
    <g id="Website" stroke="none" stroke-width="1" fill="none" fill-rule="evenodd">
        <g id="Desktop-HD" transform="translate(-903.000000, -291.000000)">
            <g id="loginLogo" transform="translate(903.000000, 291.000000)">
                <g id="Logo" transform="translate(4.000000, 0.000000)">
                    <g id="Oval-21-+-Oval-21-+-Oval-21-+-Line" fill="#FFFFFF" opacity="0.800000012">
                        <g id="Oval-21-+-Oval-21-+-Oval-21" transform="translate(0.000000, 0.307727)">
                            <g id="Combined-Shape">
                                <path d="M42.0952724,19.3611437 C48.5018798,7.61245324 58.2351511,0.115082974 69.134153,0.115082974 C80.1797037,0.115082974 90.027964,7.81542907 96.4296551,19.8373628 C109.739997,15.5269222 122.675072,17.038431 130.818779,25.1821384 C144.461538,38.8248977 139.491244,65.9144752 119.717316,85.6884033 C106.130425,99.2752937 89.089656,105.873063 75.3303601,104.245934 C73.3193574,104.786643 71.2486947,105.06885 69.134153,105.06885 C66.8108612,105.06885 64.5405396,104.728173 62.3441195,104.07826 C48.8405386,105.119683 32.48238,98.5166471 19.3505942,85.3848614 C-0.423333934,65.6109332 -5.3936284,38.5213557 8.24913082,24.8785965 C16.2820553,16.845672 28.9768746,15.2657312 42.0952724,19.3611437 Z"></path>
                            </g>
                        </g>
                    </g>
                    <g id="Oval-21-+-Oval-21-+-Oval-21" transform="translate(7.226696, 8.008641)" stroke-width="6.5" stroke="#683FAB">
                        <g id="Oval-21">
                            <use mask="url(#mask-2)" xlink:href="#path-1"></use>
                            <use mask="url(#mask-4)" xlink:href="#path-3"></use>
                            <use mask="url(#mask-6)" xlink:href="#path-5"></use>
                        </g>
                    </g>
                    <path d="M68.1442257,100.104183 L69.8585459,100.104183" id="Line" stroke="#683FAB" stroke-width="2" stroke-linecap="square"></path>
                </g>
                <g id="Group-2" transform="translate(0.000000, 113.000000)" fill="#D4D4D4">
                    <path d="M2.65367661,0.3 C1.54880247,0.3 0.653125,1.20033183 0.653125,2.29588382 L0.653125,34.0041162 C0.653125,35.1064124 1.55444069,36 2.65367661,36 L2.90257339,36 C4.00744753,36 4.903125,35.0996682 4.903125,34.0041162 L4.903125,2.29588382 C4.903125,1.19358762 4.00180931,0.3 2.90257339,0.3 L2.65367661,0.3 Z M42.121875,36 C43.2264445,36 44.121875,35.1101845 44.121875,33.9931039 L44.121875,12.1568961 C44.121875,11.048518 43.2205593,10.15 42.1213234,10.15 L41.8724266,10.15 C40.7675525,10.15 39.871875,11.0413176 39.871875,12.1494548 L39.871875,24.75 C39.871875,25.9166725 39.7135433,26.9916617 39.396875,27.975 C39.0802068,28.9583382 38.6052115,29.816663 37.971875,30.55 C37.3385385,31.283337 36.5468798,31.849998 35.596875,32.25 C34.6468703,32.650002 33.5218815,32.85 32.221875,32.85 C30.5885335,32.85 29.305213,32.383338 28.371875,31.45 C27.438537,30.516662 26.971875,29.250008 26.971875,27.65 L26.971875,12.1574725 C26.971875,11.0487761 26.0705593,10.15 24.9713234,10.15 L24.7224266,10.15 C23.6175525,10.15 22.721875,11.0400584 22.721875,12.1501062 L22.721875,27.15 C22.721875,28.550007 22.8635403,29.8249942 23.146875,30.975 C23.4302098,32.1250057 23.9218715,33.1166625 24.621875,33.95 C25.3218785,34.7833375 26.238536,35.4249977 27.371875,35.875 C28.505214,36.3250022 29.9218665,36.55 31.621875,36.55 C33.5218845,36.55 35.171868,36.1750037 36.571875,35.425 C37.971882,34.6749962 39.1218705,33.500008 40.021875,31.9 L40.121875,31.9 L40.121875,33.998043 C40.121875,35.1036933 41.0096046,36 42.121875,36 L42.121875,36 Z M102.209277,5.5 C103.369129,5.5 104.309375,4.56788387 104.309375,3.4 L104.309375,3.4 C104.309375,2.24020203 103.366162,1.3 102.209277,1.3 L102.159473,1.3 C100.999621,1.3 100.059375,2.23211613 100.059375,3.4 L100.059375,3.4 C100.059375,4.55979797 101.002588,5.5 102.159473,5.5 L102.209277,5.5 Z M102.059927,10.15 C100.955052,10.15 100.059375,11.0398155 100.059375,12.1568961 L100.059375,33.9931039 C100.059375,35.101482 100.960691,36 102.059927,36 L102.308823,36 C103.413698,36 104.309375,35.1101845 104.309375,33.9931039 L104.309375,12.1568961 C104.309375,11.048518 103.408059,10.15 102.308823,10.15 L102.059927,10.15 Z M125.228125,23.3 C125.228125,24.500006 125.386457,25.6749942 125.703125,26.825 C126.019793,27.9750057 126.503122,28.9999955 127.153125,29.9 C127.803128,30.8000045 128.636453,31.516664 129.653125,32.05 C130.669797,32.583336 131.861452,32.85 133.228125,32.85 C134.661466,32.85 135.87812,32.5666695 136.878125,32 C137.87813,31.4333305 138.694789,30.6916712 139.328125,29.775 C139.961462,28.8583287 140.41979,27.8166725 140.703125,26.65 C140.98646,25.4833275 141.128125,24.300006 141.128125,23.1 C141.128125,21.833327 140.978127,20.6083392 140.678125,19.425 C140.378124,18.2416607 139.903128,17.2000045 139.253125,16.3 C138.603122,15.3999955 137.761464,14.6750027 136.728125,14.125 C135.694787,13.5749972 134.444799,13.3 132.978125,13.3 C131.544785,13.3 130.32813,13.5833305 129.328125,14.15 C128.32812,14.7166695 127.528128,15.466662 126.928125,16.4 C126.328122,17.333338 125.894793,18.399994 125.628125,19.6 C125.361457,20.800006 125.228125,22.033327 125.228125,23.3 Z M145.228125,34.0041162 C145.228125,35.1064124 144.326809,36 143.227573,36 L142.978677,36 C141.873802,36 140.978125,35.098663 140.978125,34.0046272 L140.978125,32.5 L140.878125,32.5 C140.178121,33.9333405 139.078132,34.9666635 137.578125,35.6 C136.078117,36.2333365 134.428134,36.55 132.628125,36.55 C130.628115,36.55 128.886466,36.183337 127.403125,35.45 C125.919784,34.716663 124.686463,33.7333395 123.703125,32.5 C122.719787,31.2666605 121.978127,29.8333415 121.478125,28.2 C120.978122,26.5666585 120.728125,24.8333425 120.728125,23 C120.728125,21.1666575 120.969789,19.4333415 121.453125,17.8 C121.936461,16.1666585 122.669787,14.7416727 123.653125,13.525 C124.636463,12.3083272 125.869784,11.3416702 127.353125,10.625 C128.836466,9.90832975 130.561448,9.55 132.528125,9.55 C133.194795,9.55 133.911454,9.616666 134.678125,9.75 C135.444795,9.883334 136.211455,10.1083317 136.978125,10.425 C137.744796,10.7416682 138.469788,11.1583307 139.153125,11.675 C139.836462,12.1916692 140.411456,12.8333295 140.878125,13.6 L140.978125,13.6 L140.978125,2.29114438 C140.978125,1.1914657 141.879441,0.3 142.978677,0.3 L143.227573,0.3 C144.332448,0.3 145.228125,1.20033183 145.228125,2.29588382 L145.228125,34.0041162 Z" id="lucid"></path>
                    <path d="M62,22.7 C62,31.3 66.55,37.25 74.65,37.25 C81.45,37.25 83.6731928,32.6064919 83.6731928,32.6064919 C84.6544963,31.2774231 84.1789608,29.7713938 83.0485595,29.3902119 L83.0485595,29.3902119 L83.0431132,29.3883754 C81.9975756,29.0358104 80.6703451,29.5095964 80.0075411,30.38474 C80.0075411,30.38474 78.65,33.35 74.75,33.35 C69.45,33.35 66.1,29.25 66.1,22.7 C66.1,16.35 69.5,11.9 74.7,11.9 C78.5,11.9 79.8107147,14.7753967 79.8107147,14.7753967 C80.4399246,15.6726403 81.7797848,16.0838915 82.8166402,15.688899 L82.8166402,15.688899 C84.1053192,15.1979736 84.5261859,13.8687471 83.6720697,12.7873761 C83.6720697,12.7873761 81.2,8 74.6,8 C66.4,8 62,14.15 62,22.7 Z" id="c"></path>
                </g>
            </g>
        </g>
    </g>
</svg>