<?xml version="1.0" encoding="UTF-8"?>
<svg width="146px" height="144px" viewBox="0 0 146 144" version="1.1" xmlns="http://www.w3.org/2000/svg" xmlns:xlink="http://www.w3.org/1999/xlink" style="background: #FFFFFF;">
    <!-- Generator: Sketch 42 (36781) - http://www.bohemiancoding.com/sketch -->
    <title>blah</title>
    <desc>Created with Sketch.</desc>
    <defs>
        <ellipse id="path-1" cx="73.5" cy="48" rx="31" ry="47"></ellipse>
        <mask id="mask-2" maskContentUnits="userSpaceOnUse" maskUnits="objectBoundingBox" x="0" y="0" width="62" height="94" fill="white">
            <use xlink:href="#path-1"></use>
        </mask>
        <ellipse id="path-3" cx="100" cy="52" rx="31.3368893" ry="45.3810847"></ellipse>
        <mask id="mask-4" maskContentUnits="userSpaceOnUse" maskUnits="objectBoundingBox" x="0" y="0" width="62" height="94" fill="white">
            <use xlink:href="#path-3"></use>
        </mask>
        <ellipse id="path-5" cx="48" cy="52" rx="31.3368893" ry="45.3810847"></ellipse>
        <mask id="mask-6" maskContentUnits="userSpaceOnUse" maskUnits="objectBoundingBox" x="0" y="0" width="62" height="94" fill="white">
            <use xlink:href="#path-5"></use>
        </mask>
    </defs>
    <g id="Website" stroke="none" stroke-width="1" fill="none" fill-rule="evenodd">
        <g id="blah">
            <g transform="translate(0.000000, 1.000000)">
              <use id="Oval-21" stroke="#683FAB" mask="url(#mask-2)" stroke-width="6.5" xlink:href="#path-1" transform="translate(0 7)"></use>
              <use id="Oval-21" stroke="#683FAB" mask="url(#mask-4)" stroke-width="6.5" xlink:href="#path-3" transform="translate(13 -24) rotate(45 50 50)"></use>
              <use id="Oval-21" stroke="#683FAB" mask="url(#mask-6)" stroke-width="6.5" xlink:href="#path-5" transform="translate(0 10) rotate(-45 50 50)"></use>
                <g id="text" transform="translate(0.000000, 106.000000)" fill="#D4D4D4">
                  <path d="M2.65367661,0.3 C1.54880247,0.3 0.653125,1.20033183 0.653125,2.29588382 L0.653125,34.0041162 C0.653125,35.1064124 1.55444069,36 2.65367661,36 L2.90257339,36 C4.00744753,36 4.903125,35.0996682 4.903125,34.0041162 L4.903125,2.29588382 C4.903125,1.19358762 4.00180931,0.3 2.90257339,0.3 L2.65367661,0.3 Z M42.121875,36 C43.2264445,36 44.121875,35.1101845 44.121875,33.9931039 L44.121875,12.1568961 C44.121875,11.048518 43.2205593,10.15 42.1213234,10.15 L41.8724266,10.15 C40.7675525,10.15 39.871875,11.0413176 39.871875,12.1494548 L39.871875,24.75 C39.871875,25.9166725 39.7135433,26.9916617 39.396875,27.975 C39.0802068,28.9583382 38.6052115,29.816663 37.971875,30.55 C37.3385385,31.283337 36.5468798,31.849998 35.596875,32.25 C34.6468703,32.650002 33.5218815,32.85 32.221875,32.85 C30.5885335,32.85 29.305213,32.383338 28.371875,31.45 C27.438537,30.516662 26.971875,29.250008 26.971875,27.65 L26.971875,12.1574725 C26.971875,11.0487761 26.0705593,10.15 24.9713234,10.15 L24.7224266,10.15 C23.6175525,10.15 22.721875,11.0400584 22.721875,12.1501062 L22.721875,27.15 C22.721875,28.550007 22.8635403,29.8249942 23.146875,30.975 C23.4302098,32.1250057 23.9218715,33.1166625 24.621875,33.95 C25.3218785,34.7833375 26.238536,35.4249977 27.371875,35.875 C28.505214,36.3250022 29.9218665,36.55 31.621875,36.55 C33.5218845,36.55 35.171868,36.1750037 36.571875,35.425 C37.971882,34.6749962 39.1218705,33.500008 40.021875,31.9 L40.121875,31.9 L40.121875,33.998043 C40.121875,35.1036933 41.0096046,36 42.121875,36 L42.121875,36 Z M102.209277,5.5 C103.369129,5.5 104.309375,4.56788387 104.309375,3.4 L104.309375,3.4 C104.309375,2.24020203 103.366162,1.3 102.209277,1.3 L102.159473,1.3 C100.999621,1.3 100.059375,2.23211613 100.059375,3.4 L100.059375,3.4 C100.059375,4.55979797 101.002588,5.5 102.159473,5.5 L102.209277,5.5 Z M102.059927,10.15 C100.955052,10.15 100.059375,11.0398155 100.059375,12.1568961 L100.059375,33.9931039 C100.059375,35.101482 100.960691,36 102.059927,36 L102.308823,36 C103.413698,36 104.309375,35.1101845 104.309375,33.9931039 L104.309375,12.1568961 C104.309375,11.048518 103.408059,10.15 102.308823,10.15 L102.059927,10.15 Z M125.228125,23.3 C125.228125,24.500006 125.386457,25.6749942 125.703125,26.825 C126.019793,27.9750057 126.503122,28.9999955 127.153125,29.9 C127.803128,30.8000045 128.636453,31.516664 129.653125,32.05 C130.669797,32.583336 131.861452,32.85 133.228125,32.85 C134.661466,32.85 135.87812,32.5666695 136.878125,32 C137.87813,31.4333305 138.694789,30.6916712 139.328125,29.775 C139.961462,28.8583287 140.41979,27.8166725 140.703125,26.65 C140.98646,25.4833275 141.128125,24.300006 141.128125,23.1 C141.128125,21.833327 140.978127,20.6083392 140.678125,19.425 C140.378124,18.2416607 139.903128,17.2000045 139.253125,16.3 C138.603122,15.3999955 137.761464,14.6750027 136.728125,14.125 C135.694787,13.5749972 134.444799,13.3 132.978125,13.3 C131.544785,13.3 130.32813,13.5833305 129.328125,14.15 C128.32812,14.7166695 127.528128,15.466662 126.928125,16.4 C126.328122,17.333338 125.894793,18.399994 125.628125,19.6 C125.361457,20.800006 125.228125,22.033327 125.228125,23.3 Z M145.228125,34.0041162 C145.228125,35.1064124 144.326809,36 143.227573,36 L142.978677,36 C141.873802,36 140.978125,35.098663 140.978125,34.0046272 L140.978125,32.5 L140.878125,32.5 C140.178121,33.9333405 139.078132,34.9666635 137.578125,35.6 C136.078117,36.2333365 134.428134,36.55 132.628125,36.55 C130.628115,36.55 128.886466,36.183337 127.403125,35.45 C125.919784,34.716663 124.686463,33.7333395 123.703125,32.5 C122.719787,31.2666605 121.978127,29.8333415 121.478125,28.2 C120.978122,26.5666585 120.728125,24.8333425 120.728125,23 C120.728125,21.1666575 120.969789,19.4333415 121.453125,17.8 C121.936461,16.1666585 122.669787,14.7416727 123.653125,13.525 C124.636463,12.3083272 125.869784,11.3416702 127.353125,10.625 C128.836466,9.90832975 130.561448,9.55 132.528125,9.55 C133.194795,9.55 133.911454,9.616666 134.678125,9.75 C135.444795,9.883334 136.211455,10.1083317 136.978125,10.425 C137.744796,10.7416682 138.469788,11.1583307 139.153125,11.675 C139.836462,12.1916692 140.411456,12.8333295 140.878125,13.6 L140.978125,13.6 L140.978125,2.29114438 C140.978125,1.1914657 141.879441,0.3 142.978677,0.3 L143.227573,0.3 C144.332448,0.3 145.228125,1.20033183 145.228125,2.29588382 L145.228125,34.0041162 Z" id="lucid" fill="#D4D4D4"></path>
                  <path d="M62,23.6948718 C62,31.7068376 66.2388889,37.25 73.7850427,37.25 C80.1200855,37.25 82.0597871,33.0718111 82.0597871,33.0718111 C83.0466062,31.7519832 82.5711164,30.2519527 81.6093417,29.9276333 L81.6093417,29.9276333 L81.6093417,29.9276333 C80.6324917,29.5982304 79.3599628,30.0874878 78.6844003,30.9635742 C78.6844003,30.9635742 77.5115385,33.6166667 73.8782051,33.6166667 C68.9405983,33.6166667 65.8196581,29.7970085 65.8196581,23.6948718 C65.8196581,17.7790598 68.9871795,13.6333333 73.8316239,13.6333333 C77.3717949,13.6333333 78.5022861,16.2047854 78.5022861,16.2047854 C79.1385112,17.0999592 80.4840821,17.5095235 81.5190069,17.1152664 L81.2232218,17.2279464 C82.5177067,16.7348093 82.9367646,15.4002854 82.0784973,14.3305956 C82.0784973,14.3305956 79.8871795,10 73.7384615,10 C66.0991453,10 62,15.7294872 62,23.6948718 Z" id="c" fill="#D4D4D4"></path>
              </g>
            </g>
        </g>
    </g>
</svg>
